<svg width="210" height="39" viewBox="0 0 210 39" fill="none" xmlns="http://www.w3.org/2000/svg">
<g clip-path="url(#clip0_347_1915)">
<mask id="mask0_347_1915" style="mask-type:luminance" maskUnits="userSpaceOnUse" x="0" y="0" width="210" height="39">
<path d="M210 0.681824H0V38.8636H210V0.681824Z" fill="white"/>
</mask>
<g mask="url(#mask0_347_1915)">
<path d="M81.3548 24.9041H78.1545L76.1081 21.7256H68.4448C68.4883 21.6385 68.5463 21.5369 68.6189 21.4208C68.6915 21.2902 68.7931 21.1668 68.9238 21.0507C69.0544 20.9346 69.2067 20.8402 69.3809 20.7677C69.5696 20.6806 69.78 20.6371 70.0122 20.6371H75.4114L70.8831 13.5834L63.2416 24.9041H62.1312L71.9281 10.3178L81.3548 24.9041Z" fill="white"/>
<path d="M96.6105 14.3235C97.713 14.338 98.6132 14.4614 99.31 14.6936C100.007 14.9113 100.551 15.2016 100.943 15.5644C101.349 15.9128 101.625 16.3119 101.77 16.7618C101.929 17.2118 102.009 17.6763 102.009 18.1552L101.988 24.8823H99.3969V18.2858C99.3969 17.7198 99.3386 17.2263 99.2231 16.8054C99.121 16.37 98.9473 16.0144 98.7 15.7386C98.4681 15.4629 98.156 15.2669 97.7646 15.1508C97.3723 15.0202 96.8864 14.9694 96.306 14.9984C95.6522 15.0275 95.0938 15.1726 94.6293 15.4338C94.1649 15.6806 93.773 15.9781 93.4537 16.3264L93.1489 16.5877C93.2651 16.8344 93.3449 17.0884 93.3884 17.3496C93.4319 17.6109 93.4537 17.8794 93.4537 18.1552L93.4319 24.8823H90.8629V18.2858C90.8629 17.1392 90.6308 16.2902 90.1663 15.7386C89.7163 15.1726 88.9036 14.9258 87.728 14.9984C87.0313 15.0275 86.4362 15.1943 85.9428 15.4991C85.4493 15.7894 85.043 16.1232 84.7236 16.5006V24.9258H82.1982V14.3235H83.5698C83.9036 14.3235 84.1794 14.4324 84.397 14.6501C84.6148 14.8678 84.7236 15.1363 84.7236 15.4556C85.101 15.1073 85.5872 14.8243 86.1822 14.6065C86.7773 14.3888 87.4015 14.2945 88.0546 14.3235C89.3463 14.3525 90.3623 14.5122 91.1024 14.8025C91.8427 15.0928 92.4015 15.4701 92.7788 15.9346L93.4537 15.3033C93.831 15.013 94.2955 14.7735 94.847 14.5848C95.4131 14.3961 96.0006 14.309 96.6105 14.3235Z" fill="white"/>
<path d="M109.004 13.8882C110.165 13.8882 111.116 14.0332 111.856 14.3235C112.611 14.5993 113.199 14.9766 113.62 15.4556C114.055 15.9346 114.353 16.5006 114.512 17.1537C114.686 17.7923 114.774 18.4745 114.774 19.2002V24.8606C114.585 24.8606 114.381 24.8388 114.164 24.7953C113.946 24.7372 113.728 24.6573 113.511 24.5558C113.307 24.4542 113.112 24.338 112.923 24.2075C112.749 24.0768 112.596 23.9317 112.465 23.772C112.045 24.0768 111.573 24.3308 111.051 24.534C110.542 24.7372 110.02 24.8823 109.483 24.9694C108.757 25.1001 108.039 25.1291 107.328 25.0565C106.617 24.9839 105.977 24.8025 105.411 24.5122C104.846 24.2075 104.381 23.7938 104.019 23.2713C103.67 22.7488 103.496 22.103 103.496 21.3337C103.496 20.6081 103.678 19.9985 104.041 19.505C104.403 18.997 104.867 18.5906 105.433 18.2858C106.014 17.9811 106.653 17.7778 107.349 17.6763C108.06 17.5601 108.757 17.5383 109.44 17.6109C109.976 17.6835 110.485 17.8068 110.963 17.9811C111.442 18.1552 111.856 18.3874 112.204 18.6777V18.0246C112.204 17.5456 112.117 17.0957 111.943 16.6748C111.783 16.2394 111.559 15.862 111.268 15.5427C110.978 15.2234 110.637 14.9766 110.245 14.8025C109.853 14.6138 109.432 14.5195 108.982 14.5195C108.372 14.534 107.763 14.6718 107.153 14.9331C106.543 15.1798 105.999 15.5136 105.521 15.9346L105.303 15.325C105.811 14.8605 106.392 14.505 107.045 14.2582C107.712 14.0115 108.366 13.8882 109.004 13.8882ZM112.292 23.4454C112.234 23.3294 112.204 23.1987 112.204 23.0536V19.1349C111.783 18.8736 111.348 18.6559 110.898 18.4817C110.449 18.2931 110.006 18.1987 109.57 18.1987C109.135 18.1987 108.714 18.2568 108.307 18.3729C107.915 18.489 107.567 18.6777 107.262 18.9389C106.972 19.1857 106.74 19.5122 106.565 19.9186C106.392 20.3105 106.312 20.7967 106.326 21.3772C106.341 21.9288 106.435 22.3932 106.609 22.7706C106.783 23.1334 107.008 23.4309 107.284 23.6632C107.574 23.8954 107.908 24.0623 108.286 24.1639C108.663 24.251 109.055 24.2945 109.462 24.2945C109.925 24.2945 110.354 24.2437 110.745 24.1422C111.152 24.026 111.573 23.8374 112.008 23.5761L112.292 23.4454Z" fill="white"/>
<path d="M122.326 14.3235C123.429 14.338 124.33 14.4614 125.026 14.6936C125.722 14.9113 126.267 15.2016 126.659 15.5644C127.065 15.9128 127.341 16.3119 127.486 16.7618C127.646 17.2118 127.726 17.6763 127.726 18.1552L127.704 24.8823H125.135V18.2858C125.135 17.1392 124.902 16.2902 124.438 15.7386C123.988 15.1726 123.176 14.9258 122 14.9984C121.303 15.0275 120.708 15.1943 120.215 15.4991C119.721 15.7894 119.314 16.1232 118.996 16.5006V24.9258H116.47V14.3235H117.842C118.176 14.3235 118.451 14.4324 118.669 14.6501C118.887 14.8678 118.996 15.1363 118.996 15.4556C119.373 15.1073 119.859 14.8243 120.454 14.6065C121.049 14.3888 121.673 14.2945 122.326 14.3235Z" fill="white"/>
<path d="M134.708 13.8882C135.869 13.8882 136.82 14.0332 137.56 14.3235C138.315 14.5993 138.903 14.9766 139.324 15.4556C139.759 15.9346 140.057 16.5006 140.216 17.1537C140.39 17.7923 140.478 18.4745 140.478 19.2002V24.8606C140.289 24.8606 140.085 24.8388 139.868 24.7953C139.65 24.7372 139.432 24.6573 139.215 24.5558C139.011 24.4542 138.816 24.338 138.627 24.2075C138.452 24.0768 138.3 23.9317 138.17 23.772C137.749 24.0768 137.277 24.3308 136.754 24.534C136.246 24.7372 135.724 24.8823 135.187 24.9694C134.461 25.1001 133.742 25.1291 133.031 25.0565C132.32 24.9839 131.682 24.8025 131.115 24.5122C130.549 24.2075 130.086 23.7938 129.723 23.2713C129.374 22.7488 129.2 22.103 129.2 21.3337C129.2 20.6081 129.381 19.9985 129.745 19.505C130.107 18.997 130.571 18.5906 131.137 18.2858C131.718 17.9811 132.356 17.7778 133.053 17.6763C133.764 17.5601 134.461 17.5383 135.144 17.6109C135.68 17.6835 136.188 17.8068 136.667 17.9811C137.146 18.1552 137.56 18.3874 137.908 18.6777V18.0246C137.908 17.5456 137.821 17.0957 137.647 16.6748C137.487 16.2394 137.263 15.862 136.973 15.5427C136.681 15.2234 136.341 14.9766 135.949 14.8025C135.557 14.6138 135.136 14.5195 134.686 14.5195C134.076 14.534 133.467 14.6718 132.858 14.9331C132.248 15.1798 131.703 15.5136 131.224 15.9346L131.007 15.325C131.515 14.8605 132.096 14.505 132.749 14.2582C133.416 14.0115 134.07 13.8882 134.708 13.8882ZM137.996 23.4454C137.938 23.3294 137.908 23.1987 137.908 23.0536V19.1349C137.487 18.8736 137.052 18.6559 136.602 18.4817C136.152 18.2931 135.71 18.1987 135.274 18.1987C134.838 18.1987 134.417 18.2568 134.012 18.3729C133.619 18.489 133.271 18.6777 132.966 18.9389C132.676 19.1857 132.444 19.5122 132.27 19.9186C132.096 20.3105 132.016 20.7967 132.03 21.3772C132.044 21.9288 132.139 22.3932 132.313 22.7706C132.487 23.1334 132.712 23.4309 132.988 23.6632C133.278 23.8954 133.613 24.0623 133.99 24.1639C134.367 24.251 134.759 24.2945 135.166 24.2945C135.63 24.2945 136.058 24.2437 136.449 24.1422C136.856 24.026 137.277 23.8374 137.712 23.5761L137.996 23.4454Z" fill="white"/>
<path d="M148.248 14.1058C149.351 14.1349 150.236 14.2727 150.904 14.5195C151.587 14.7662 152.109 15.0783 152.471 15.4556C152.849 15.8329 153.102 16.2612 153.233 16.7401C153.364 17.2045 153.43 17.6763 153.43 18.1552L153.408 24.8823H150.838V18.2858C150.838 17.1392 150.606 16.2902 150.142 15.7386C149.692 15.1726 148.88 14.9258 147.704 14.9984C147.007 15.0275 146.412 15.1944 145.919 15.4991C145.425 15.7894 145.018 16.1232 144.7 16.5006V24.9258H142.174V9.27274C142.522 9.27274 142.849 9.33805 143.153 9.46867C143.459 9.59929 143.727 9.78072 143.959 10.0129C144.192 10.2306 144.373 10.4919 144.503 10.7967C144.634 11.1015 144.7 11.428 144.7 11.7764V15.4556C144.888 15.2814 145.113 15.1146 145.374 14.9549C145.65 14.7807 145.947 14.6283 146.267 14.4977C146.586 14.367 146.913 14.2655 147.246 14.1929C147.595 14.1204 147.929 14.0913 148.248 14.1058Z" fill="white"/>
<path d="M155.252 24.9041V12.8431C155.252 12.4948 155.318 12.1683 155.448 11.8635C155.579 11.5587 155.76 11.2902 155.993 11.0579C156.225 10.8257 156.493 10.6443 156.797 10.5137C157.103 10.3831 157.429 10.3178 157.778 10.3178V23.8592H164.156C164.577 23.8592 164.911 23.9535 165.157 24.1422C165.405 24.3163 165.659 24.5703 165.92 24.9041H155.252Z" fill="white"/>
<path d="M172.995 13.8446C173.706 13.8446 174.425 13.9244 175.15 14.084C175.89 14.2437 176.558 14.5268 177.153 14.9331C177.763 15.3395 178.257 15.8983 178.634 16.6095C179.011 17.3206 179.2 18.235 179.2 19.3526C179.2 20.4701 179.011 21.399 178.634 22.1393C178.257 22.8794 177.763 23.4745 177.153 23.9244C176.558 24.3743 175.89 24.6936 175.15 24.8823C174.425 25.0565 173.706 25.1436 172.995 25.1436C172.284 25.1436 171.537 25.071 170.753 24.9259C169.984 24.7953 169.272 24.5268 168.619 24.1204C167.981 23.6995 167.458 23.1116 167.052 22.357C166.645 21.5877 166.442 20.5862 166.442 19.3526C166.456 18.1769 166.667 17.2336 167.073 16.5224C167.494 15.7967 168.024 15.2379 168.662 14.846C169.301 14.4542 170.005 14.1929 170.775 14.0623C171.543 13.9172 172.284 13.8446 172.995 13.8446ZM172.995 24.6646C173.445 24.6646 173.88 24.5558 174.301 24.338C174.737 24.1204 175.121 23.7938 175.455 23.3584C175.803 22.9084 176.079 22.3497 176.283 21.682C176.5 21.0144 176.609 20.2379 176.609 19.3526C176.609 18.4962 176.5 17.7561 176.283 17.132C176.079 16.4934 175.803 15.9636 175.455 15.5427C175.121 15.1218 174.737 14.8098 174.301 14.6066C173.88 14.4033 173.445 14.3018 172.995 14.3018C172.546 14.3018 172.081 14.4106 171.601 14.6283C171.138 14.8315 170.717 15.1436 170.339 15.5644C169.962 15.9709 169.649 16.4934 169.403 17.132C169.156 17.7561 169.033 18.4962 169.033 19.3526C169.033 20.2379 169.156 21.0144 169.403 21.682C169.649 22.3497 169.962 22.9084 170.339 23.3584C170.717 23.7938 171.138 24.1204 171.601 24.338C172.081 24.5558 172.546 24.6646 172.995 24.6646Z" fill="white"/>
<path d="M190.37 14.8025C190.587 14.4542 190.879 14.1784 191.241 13.9752C191.618 13.7575 192.025 13.6487 192.46 13.6487V24.5993C192.46 25.5572 192.279 26.4062 191.916 27.1465C191.553 27.9012 191.06 28.5398 190.436 29.0623C189.811 29.5848 189.078 29.9766 188.236 30.2379C187.394 30.5137 186.495 30.6516 185.537 30.6516C184.622 30.6516 183.744 30.5064 182.902 30.2161C182.061 29.9258 181.278 29.505 180.551 28.9535L180.682 28.4092C181.379 28.9172 182.126 29.309 182.924 29.5848C183.723 29.8606 184.558 29.9985 185.428 29.9985C186.052 29.9985 186.64 29.9258 187.192 29.7808C187.743 29.6356 188.222 29.4107 188.629 29.1058C189.035 28.801 189.354 28.4164 189.586 27.952C189.819 27.5021 189.935 26.965 189.935 26.341V23.9027C189.717 24.0478 189.485 24.1784 189.238 24.2945C188.991 24.4107 188.708 24.5122 188.389 24.5993C188.085 24.6863 187.729 24.759 187.322 24.817C186.931 24.8606 186.48 24.8823 185.972 24.8823C185.043 24.8823 184.209 24.759 183.468 24.5122C182.743 24.2655 182.126 23.9172 181.619 23.4672C181.125 23.0173 180.74 22.4658 180.464 21.8127C180.203 21.1595 180.073 20.4338 180.073 19.6356C180.073 18.0391 180.573 16.7764 181.575 15.8474C182.576 14.9186 184.042 14.4106 185.972 14.3235C186.8 14.2945 187.583 14.3163 188.324 14.3888C189.078 14.4614 189.761 14.5993 190.37 14.8025ZM189.935 16.174C189.935 15.8837 189.993 15.5862 190.109 15.2814C189.238 14.9911 188.411 14.846 187.627 14.846C186.989 14.846 186.379 14.9476 185.798 15.1508C185.218 15.354 184.709 15.6661 184.274 16.0869C183.839 16.4934 183.49 17.0086 183.23 17.6326C182.983 18.2568 182.866 18.9897 182.881 19.8315C182.896 20.6298 183.026 21.3047 183.273 21.8562C183.52 22.3932 183.846 22.8286 184.253 23.1624C184.673 23.4962 185.152 23.7357 185.69 23.8809C186.226 24.026 186.8 24.0985 187.41 24.0985C187.976 24.0985 188.454 24.0187 188.846 23.8591C189.238 23.6994 189.601 23.4962 189.935 23.2496V16.174Z" fill="white"/>
<path d="M195.657 12.9738L194.198 11.4934L195.657 10.0129L197.138 11.4934L195.657 12.9738ZM194.416 16.849C194.416 16.5007 194.481 16.174 194.612 15.8692C194.743 15.5644 194.924 15.296 195.156 15.0638C195.389 14.8315 195.657 14.6501 195.962 14.5195C196.266 14.3888 196.593 14.3235 196.942 14.3235V24.9259H194.416V16.849Z" fill="white"/>
<path d="M204.275 14.3235C205.479 14.28 206.589 14.3525 207.606 14.5413C208.622 14.7155 209.42 15.0275 210 15.4774V16.0869C209.361 15.6661 208.687 15.354 207.975 15.1508C207.264 14.9476 206.583 14.846 205.929 14.846C205.29 14.846 204.681 14.9476 204.101 15.1508C203.52 15.354 203.012 15.6661 202.577 16.0869C202.141 16.4934 201.793 17.0086 201.531 17.6326C201.285 18.2568 201.169 18.9897 201.183 19.8315C201.198 20.6298 201.328 21.3192 201.575 21.8997C201.837 22.4658 202.178 22.9302 202.599 23.2931C203.019 23.6559 203.499 23.9244 204.035 24.0985C204.587 24.2582 205.167 24.338 205.777 24.338C206.474 24.338 207.192 24.2437 207.932 24.055C208.672 23.8664 209.361 23.5761 210 23.1842V23.6414C209.594 23.9027 209.195 24.1131 208.803 24.2727C208.426 24.4324 208.019 24.563 207.584 24.6646C207.149 24.7517 206.662 24.8098 206.126 24.8388C205.602 24.8678 204.986 24.8823 204.275 24.8823C203.346 24.8823 202.512 24.759 201.771 24.5122C201.045 24.2655 200.429 23.9172 199.921 23.4672C199.427 23.0173 199.043 22.4658 198.767 21.8127C198.505 21.1595 198.375 20.4339 198.375 19.6356V19.2873C198.375 19.2437 198.375 19.2002 198.375 19.1567C198.389 19.0985 198.397 19.0478 198.397 19.0042C198.527 17.5819 199.086 16.4643 200.073 15.6516C201.074 14.8388 202.475 14.3961 204.275 14.3235Z" fill="white"/>
<path d="M0 10.4444C5.1008 21.1701 22.709 18.6798 27.4646 25.2426C25.6356 15.6347 6.55993 16.6991 0 10.4444ZM27.4646 25.2426C32.2201 18.6839 49.8283 21.1743 54.9291 10.4444C48.3692 16.6991 29.2937 15.6306 27.4646 25.2426Z" fill="white"/>
<path d="M4.92834 20.5409C8.54123 27.9132 24.2423 25.2626 27.4648 27.0995C24.5218 21.149 10.2593 24.2311 4.92834 20.5409ZM27.4648 27.0995C30.683 25.2626 46.3883 27.9132 50.0011 20.5409C44.6702 24.2311 30.4077 21.1449 27.4648 27.0995Z" fill="url(#paint0_linear_347_1915)"/>
<path d="M50.0002 20.5418C44.4636 26.1306 30.7231 23.4143 27.4637 27.1005C30.4067 21.1499 44.6691 24.2321 50.0002 20.5418Z" fill="url(#paint1_linear_347_1915)"/>
<path d="M4.92834 20.5418C10.4648 26.1306 24.2053 23.4143 27.4648 27.1005C24.5218 21.1499 10.2593 24.2321 4.92834 20.5418Z" fill="url(#paint2_linear_347_1915)"/>
<path d="M54.9283 10.4445C50.0248 17.8703 31.1588 17.1593 27.4637 25.2426C29.2927 15.6347 48.3684 16.6991 54.9283 10.4445Z" fill="white"/>
<path d="M0 10.4445C4.90351 17.8703 23.7695 17.1593 27.4646 25.2426C25.6356 15.6347 6.55993 16.6991 0 10.4445Z" fill="white"/>
</g>
</g>
<defs>
<linearGradient id="paint0_linear_347_1915" x1="38.0938" y1="17.5409" x2="1.9995" y2="31.341" gradientUnits="userSpaceOnUse">
<stop stop-color="#F8CC58"/>
<stop offset="1" stop-color="#8F4D05"/>
</linearGradient>
<linearGradient id="paint1_linear_347_1915" x1="44.3362" y1="21.376" x2="24.2834" y2="29.0427" gradientUnits="userSpaceOnUse">
<stop stop-color="#F8CC58"/>
<stop offset="1" stop-color="#8F4D05"/>
</linearGradient>
<linearGradient id="paint2_linear_347_1915" x1="20.7609" y1="22.0746" x2="4.72361" y2="28.2079" gradientUnits="userSpaceOnUse">
<stop stop-color="#F8CC58"/>
<stop offset="1" stop-color="#8F4D05"/>
</linearGradient>
<clipPath id="clip0_347_1915">
<rect width="210" height="38.1818" fill="white" transform="translate(0 0.681824)"/>
</clipPath>
</defs>
</svg>
