<svg width="100" height="30" viewBox="0 0 100 30" fill="none" xmlns="http://www.w3.org/2000/svg">
<path d="M0 0C9.28616 19.3185 41.3424 14.8331 50 26.6536C46.6702 9.3484 11.9425 11.2656 0 0ZM50 26.6536C58.6576 14.8405 90.7138 19.326 100 0C88.0575 11.2656 53.3299 9.34101 50 26.6536Z" fill="#1E293B"/>
<path d="M8.97241 18.1852C15.5498 31.4638 44.1341 26.6898 50.0006 29.9983C44.6429 19.2805 18.6776 24.8319 8.97241 18.1852ZM50.0006 29.9983C55.8595 26.6898 84.4514 31.4638 91.0287 18.1852C81.3235 24.8319 55.3582 19.2731 50.0006 29.9983Z" fill="url(#paint0_linear_648_89)"/>
<path d="M91.0266 18.1868C80.9472 28.2532 55.9322 23.3607 49.9984 30C55.3562 19.2822 81.3213 24.8336 91.0266 18.1868Z" fill="url(#paint1_linear_648_89)"/>
<path d="M8.97229 18.1868C19.0516 28.2532 44.0665 23.3607 50.0005 30C44.6428 19.2822 18.6774 24.8336 8.97229 18.1868Z" fill="url(#paint2_linear_648_89)"/>
<path d="M99.9984 0.00012207C91.0715 13.3751 56.7253 12.0946 49.9984 26.6537C53.3282 9.34852 88.0559 11.2657 99.9984 0.00012207Z" fill="#1E293B"/>
<path d="M0 0.00012207C8.92698 13.3751 43.2731 12.0946 50 26.6537C46.6702 9.34852 11.9425 11.2657 0 0.00012207Z" fill="#1E293B"/>
<defs>
<linearGradient id="paint0_linear_648_89" x1="69.3511" y1="12.7818" x2="3.82119" y2="38.1057" gradientUnits="userSpaceOnUse">
<stop stop-color="#F8CC58"/>
<stop offset="1" stop-color="#8F4D05"/>
</linearGradient>
<linearGradient id="paint1_linear_648_89" x1="80.7152" y1="19.6893" x2="44.3089" y2="33.7581" gradientUnits="userSpaceOnUse">
<stop stop-color="#F8CC58"/>
<stop offset="1" stop-color="#8F4D05"/>
</linearGradient>
<linearGradient id="paint2_linear_648_89" x1="37.7959" y1="20.9476" x2="8.67995" y2="32.2026" gradientUnits="userSpaceOnUse">
<stop stop-color="#F8CC58"/>
<stop offset="1" stop-color="#8F4D05"/>
</linearGradient>
</defs>
</svg>
