<svg width="166" height="24" viewBox="0 0 166 24" fill="none" xmlns="http://www.w3.org/2000/svg">
<path d="M21.5806 17.5479H17.9879L15.6905 13.9796H7.08763C7.13651 13.8819 7.20168 13.7678 7.28315 13.6375C7.36462 13.4908 7.47867 13.3523 7.62531 13.222C7.77195 13.0917 7.94303 12.9857 8.13855 12.9043C8.35037 12.8065 8.58662 12.7576 8.84731 12.7576H14.9085L9.82492 4.8391L1.24645 17.5479H0L10.998 1.17312L21.5806 17.5479Z" fill="#0638A8"/>
<path d="M38.7068 5.67006C39.9451 5.68635 40.9553 5.82485 41.7374 6.08554C42.5195 6.32994 43.1305 6.65581 43.5704 7.06314C44.0266 7.45418 44.3362 7.90224 44.4991 8.40733C44.6783 8.91242 44.768 9.43381 44.768 9.97149L44.7435 17.5234H41.8351V10.1181C41.8351 9.48269 41.77 8.92872 41.6396 8.45621C41.5256 7.96741 41.3301 7.56823 41.0531 7.25866C40.7924 6.94908 40.4421 6.72912 40.0021 6.59878C39.5622 6.45214 39.0164 6.39511 38.3647 6.4277C37.6314 6.46029 37.0042 6.62322 36.4828 6.9165C35.9614 7.19348 35.5215 7.5275 35.163 7.91853L34.8208 8.21181C34.9512 8.4888 35.0408 8.77393 35.0897 9.06721C35.1386 9.36049 35.163 9.66191 35.163 9.97149L35.1386 17.5234H32.2546V10.1181C32.2546 8.83096 31.9939 7.8778 31.4725 7.25866C30.9674 6.62322 30.055 6.34623 28.7353 6.4277C27.9532 6.46029 27.2851 6.64766 26.7312 6.98982C26.1772 7.31568 25.721 7.69043 25.3625 8.11405V17.5723H22.5275V5.67006H24.0672C24.4419 5.67006 24.7515 5.79226 24.9959 6.03666C25.2403 6.28106 25.3625 6.58248 25.3625 6.94094C25.7861 6.5499 26.332 6.23218 27 5.98778C27.668 5.74338 28.3687 5.63747 29.1019 5.67006C30.552 5.70265 31.6925 5.88187 32.5235 6.20774C33.3544 6.53361 33.9817 6.95723 34.4054 7.47862L35.163 6.76986C35.5866 6.44399 36.108 6.17515 36.7272 5.96334C37.3626 5.75153 38.0225 5.65377 38.7068 5.67006Z" fill="#0638A8"/>
<path d="M52.6201 5.18126C53.9236 5.18126 54.9908 5.3442 55.8218 5.67006C56.669 5.97963 57.3289 6.40326 57.8014 6.94094C58.2902 7.47862 58.6242 8.11405 58.8034 8.84725C58.999 9.56416 59.0967 10.3299 59.0967 11.1446V17.499C58.8849 17.499 58.6568 17.4745 58.4124 17.4257C58.168 17.3605 57.9236 17.2709 57.6792 17.1568C57.4511 17.0428 57.2311 16.9124 57.0193 16.7658C56.8238 16.6191 56.6527 16.4562 56.5061 16.277C56.0336 16.6191 55.504 16.9043 54.9175 17.1324C54.3472 17.3605 53.7606 17.5234 53.1578 17.6212C52.3431 17.7678 51.5366 17.8004 50.7382 17.7189C49.9398 17.6375 49.2229 17.4338 48.5875 17.1079C47.952 16.7658 47.4307 16.3014 47.0233 15.7149C46.6323 15.1283 46.4368 14.4033 46.4368 13.5397C46.4368 12.7251 46.6404 12.0407 47.0478 11.4868C47.4551 10.9165 47.9765 10.4603 48.6119 10.1181C49.2637 9.77597 49.9806 9.54786 50.7627 9.43381C51.561 9.30346 52.3431 9.27902 53.1089 9.36049C53.7118 9.44196 54.282 9.58045 54.8197 9.77597C55.3574 9.97149 55.8218 10.2322 56.2128 10.558V9.82485C56.2128 9.28717 56.115 8.78208 55.9195 8.30957C55.7403 7.82077 55.4877 7.39715 55.1619 7.0387C54.836 6.68024 54.4531 6.40326 54.0132 6.20774C53.5733 5.99593 53.1008 5.89002 52.5957 5.89002C51.9113 5.90631 51.227 6.0611 50.5427 6.35438C49.8584 6.63137 49.2474 7.00611 48.7097 7.47862L48.4653 6.7943C49.0355 6.27291 49.6873 5.87373 50.4205 5.59674C51.17 5.31976 51.9032 5.18126 52.6201 5.18126ZM56.3106 15.9104C56.2454 15.78 56.2128 15.6334 56.2128 15.4705V11.0713C55.7403 10.778 55.2515 10.5336 54.7464 10.3381C54.2413 10.1263 53.7443 10.0204 53.2555 10.0204C52.7667 10.0204 52.2942 10.0855 51.838 10.2159C51.3981 10.3462 51.0071 10.558 50.6649 10.8513C50.339 11.1283 50.0783 11.4949 49.8828 11.9511C49.6873 12.391 49.5977 12.9369 49.614 13.5886C49.6303 14.2077 49.7362 14.7291 49.9317 15.1527C50.1272 15.5601 50.3798 15.8941 50.6893 16.1548C51.0152 16.4155 51.3899 16.6029 51.8136 16.7169C52.2372 16.8147 52.6771 16.8635 53.1333 16.8635C53.6547 16.8635 54.1354 16.8065 54.5753 16.6925C55.0315 16.5621 55.504 16.3503 55.9928 16.057L56.3106 15.9104Z" fill="#0638A8"/>
<path d="M67.5759 5.67006C68.8142 5.68635 69.8244 5.82485 70.6065 6.08554C71.3886 6.32994 71.9996 6.65581 72.4395 7.06314C72.8957 7.45418 73.2053 7.90224 73.3682 8.40733C73.5474 8.91242 73.6371 9.43381 73.6371 9.97149L73.6126 17.5234H70.7287V10.1181C70.7287 8.83096 70.468 7.8778 69.9466 7.25866C69.4415 6.62322 68.5291 6.34623 67.2093 6.4277C66.4272 6.46029 65.7592 6.64766 65.2052 6.98982C64.6512 7.31568 64.195 7.69043 63.8366 8.11405V17.5723H61.0015V5.67006H62.5413C62.916 5.67006 63.2256 5.79226 63.47 6.03666C63.7144 6.28106 63.8366 6.58248 63.8366 6.94094C64.2602 6.5499 64.806 6.23218 65.4741 5.98778C66.1421 5.74338 66.8427 5.63747 67.5759 5.67006Z" fill="#0638A8"/>
<path d="M81.4756 5.18126C82.7791 5.18126 83.8463 5.3442 84.6773 5.67006C85.5246 5.97963 86.1844 6.40326 86.6569 6.94094C87.1458 7.47862 87.4798 8.11405 87.659 8.84725C87.8545 9.56416 87.9523 10.3299 87.9523 11.1446V17.499C87.7405 17.499 87.5124 17.4745 87.268 17.4257C87.0235 17.3605 86.7791 17.2709 86.5347 17.1568C86.3066 17.0428 86.0867 16.9124 85.8749 16.7658C85.6793 16.6191 85.5083 16.4562 85.3616 16.277C84.8891 16.6191 84.3596 16.9043 83.773 17.1324C83.2027 17.3605 82.6162 17.5234 82.0133 17.6212C81.1987 17.7678 80.3921 17.8004 79.5938 17.7189C78.7954 17.6375 78.0785 17.4338 77.443 17.1079C76.8076 16.7658 76.2862 16.3014 75.8789 15.7149C75.4878 15.1283 75.2923 14.4033 75.2923 13.5397C75.2923 12.7251 75.496 12.0407 75.9033 11.4868C76.3106 10.9165 76.832 10.4603 77.4675 10.1181C78.1192 9.77597 78.8361 9.54786 79.6182 9.43381C80.4166 9.30346 81.1987 9.27902 81.9644 9.36049C82.5673 9.44196 83.1376 9.58045 83.6753 9.77597C84.2129 9.97149 84.6773 10.2322 85.0683 10.558V9.82485C85.0683 9.28717 84.9706 8.78208 84.7751 8.30957C84.5958 7.82077 84.3433 7.39715 84.0174 7.0387C83.6916 6.68024 83.3086 6.40326 82.8687 6.20774C82.4288 5.99593 81.9563 5.89002 81.4512 5.89002C80.7669 5.90631 80.0826 6.0611 79.3982 6.35438C78.7139 6.63137 78.1029 7.00611 77.5652 7.47862L77.3208 6.7943C77.8911 6.27291 78.5428 5.87373 79.276 5.59674C80.0255 5.31976 80.7587 5.18126 81.4756 5.18126ZM85.1661 15.9104C85.1009 15.78 85.0683 15.6334 85.0683 15.4705V11.0713C84.5958 10.778 84.107 10.5336 83.6019 10.3381C83.0968 10.1263 82.5999 10.0204 82.1111 10.0204C81.6223 10.0204 81.1498 10.0855 80.6936 10.2159C80.2536 10.3462 79.8626 10.558 79.5204 10.8513C79.1946 11.1283 78.9339 11.4949 78.7384 11.9511C78.5428 12.391 78.4532 12.9369 78.4695 13.5886C78.4858 14.2077 78.5917 14.7291 78.7872 15.1527C78.9827 15.5601 79.2353 15.8941 79.5449 16.1548C79.8707 16.4155 80.2455 16.6029 80.6691 16.7169C81.0928 16.8147 81.5327 16.8635 81.9889 16.8635C82.5103 16.8635 82.9909 16.8065 83.4309 16.6925C83.8871 16.5621 84.3596 16.3503 84.8484 16.057L85.1661 15.9104Z" fill="#0638A8"/>
<path d="M96.6758 5.42566C97.9142 5.45825 98.9081 5.61303 99.6575 5.89002C100.423 6.16701 101.01 6.51731 101.417 6.94094C101.841 7.36456 102.126 7.84521 102.273 8.38289C102.419 8.90428 102.493 9.43381 102.493 9.97149L102.468 17.5234H99.5842V10.1181C99.5842 8.83096 99.3235 7.8778 98.8021 7.25866C98.297 6.62322 97.3846 6.34623 96.0648 6.4277C95.2828 6.46029 94.6147 6.64766 94.0608 6.98982C93.5068 7.31568 93.0506 7.69043 92.6921 8.11405V17.5723H89.8571V0C90.2481 0 90.6147 0.0733198 90.9569 0.219959C91.299 0.366599 91.6005 0.570265 91.8612 0.830958C92.1218 1.07536 92.3255 1.36864 92.4722 1.7108C92.6188 2.05295 92.6921 2.41955 92.6921 2.81059V6.94094C92.9039 6.74542 93.1565 6.55805 93.4498 6.37882C93.7593 6.1833 94.0933 6.01222 94.4518 5.86558C94.8103 5.71894 95.1769 5.60489 95.5516 5.52342C95.9426 5.44196 96.3174 5.40937 96.6758 5.42566Z" fill="#0638A8"/>
<path d="M104.539 17.5479V4.00815C104.539 3.61711 104.612 3.25051 104.759 2.90835C104.905 2.56619 105.109 2.26477 105.37 2.00407C105.631 1.74338 105.932 1.53972 106.274 1.39308C106.616 1.24644 106.983 1.17312 107.374 1.17312V16.3747H114.535C115.007 16.3747 115.382 16.4807 115.659 16.6925C115.936 16.888 116.221 17.1731 116.515 17.5479H104.539Z" fill="#0638A8"/>
<path d="M124.457 5.13238C125.256 5.13238 126.062 5.222 126.877 5.40122C127.708 5.58045 128.457 5.89817 129.125 6.35438C129.81 6.81059 130.364 7.43788 130.787 8.23625C131.211 9.03462 131.423 10.0611 131.423 11.3157C131.423 12.5703 131.211 13.613 130.787 14.444C130.364 15.2749 129.81 15.943 129.125 16.4481C128.457 16.9532 127.708 17.3116 126.877 17.5234C126.062 17.7189 125.256 17.8167 124.457 17.8167C123.659 17.8167 122.82 17.7352 121.94 17.5723C121.076 17.4257 120.278 17.1242 119.545 16.668C118.828 16.1955 118.241 15.5356 117.785 14.6884C117.329 13.8248 117.101 12.7006 117.101 11.3157C117.117 9.99593 117.353 8.93686 117.81 8.13849C118.282 7.32383 118.877 6.69654 119.594 6.25662C120.311 5.8167 121.101 5.52342 121.964 5.37678C122.828 5.21385 123.659 5.13238 124.457 5.13238ZM124.457 17.279C124.962 17.279 125.451 17.1568 125.924 16.9124C126.413 16.668 126.844 16.3014 127.219 15.8126C127.61 15.3075 127.92 14.6802 128.148 13.9308C128.392 13.1813 128.514 12.3096 128.514 11.3157C128.514 10.3544 128.392 9.52342 128.148 8.82281C127.92 8.10591 127.61 7.5112 127.219 7.0387C126.844 6.56619 126.413 6.21589 125.924 5.98778C125.451 5.75967 124.962 5.64562 124.457 5.64562C123.952 5.64562 123.431 5.76782 122.893 6.01222C122.372 6.24033 121.899 6.59063 121.476 7.06314C121.052 7.51935 120.702 8.10591 120.425 8.82281C120.148 9.52342 120.009 10.3544 120.009 11.3157C120.009 12.3096 120.148 13.1813 120.425 13.9308C120.702 14.6802 121.052 15.3075 121.476 15.8126C121.899 16.3014 122.372 16.668 122.893 16.9124C123.431 17.1568 123.952 17.279 124.457 17.279Z" fill="#0638A8"/>
<path d="M143.963 6.20774C144.207 5.8167 144.533 5.50713 144.94 5.27902C145.364 5.03462 145.82 4.91242 146.309 4.91242V17.2057C146.309 18.2811 146.105 19.2342 145.698 20.0652C145.291 20.9124 144.737 21.6293 144.036 22.2159C143.336 22.8024 142.513 23.2424 141.568 23.5356C140.623 23.8452 139.613 24 138.537 24C137.511 24 136.525 23.8371 135.58 23.5112C134.635 23.1853 133.755 22.7128 132.94 22.0937L133.087 21.4827C133.869 22.053 134.708 22.4929 135.604 22.8024C136.5 23.112 137.437 23.2668 138.415 23.2668C139.116 23.2668 139.775 23.1853 140.395 23.0224C141.014 22.8595 141.551 22.6069 142.008 22.2648C142.464 21.9226 142.822 21.4908 143.083 20.9694C143.344 20.4644 143.474 19.8615 143.474 19.1609V16.4236C143.23 16.5866 142.969 16.7332 142.692 16.8635C142.415 16.9939 142.097 17.1079 141.739 17.2057C141.397 17.3035 140.997 17.3849 140.541 17.4501C140.101 17.499 139.596 17.5234 139.026 17.5234C137.983 17.5234 137.046 17.3849 136.215 17.1079C135.401 16.831 134.708 16.4399 134.138 15.9348C133.584 15.4297 133.152 14.8106 132.843 14.0774C132.549 13.3442 132.403 12.5295 132.403 11.6334C132.403 9.84114 132.965 8.42362 134.089 7.38086C135.213 6.33809 136.859 5.76782 139.026 5.67006C139.955 5.63747 140.835 5.66191 141.665 5.74338C142.513 5.82485 143.279 5.97963 143.963 6.20774ZM143.474 7.74745C143.474 7.42159 143.539 7.08758 143.67 6.74542C142.692 6.41955 141.763 6.25662 140.883 6.25662C140.167 6.25662 139.482 6.37067 138.83 6.59878C138.179 6.82688 137.608 7.17719 137.12 7.64969C136.631 8.10591 136.24 8.68432 135.947 9.38493C135.67 10.0855 135.539 10.9084 135.555 11.8534C135.572 12.7495 135.718 13.5071 135.995 14.1263C136.272 14.7291 136.639 15.2179 137.095 15.5927C137.568 15.9674 138.105 16.2363 138.708 16.3992C139.311 16.5621 139.955 16.6436 140.639 16.6436C141.274 16.6436 141.812 16.554 142.252 16.3747C142.692 16.1955 143.099 15.9674 143.474 15.6904V7.74745Z" fill="#0638A8"/>
<path d="M149.898 4.15479L148.26 2.49287L149.898 0.830958L151.56 2.49287L149.898 4.15479ZM148.505 8.50509C148.505 8.11405 148.578 7.74745 148.725 7.4053C148.871 7.06314 149.075 6.76171 149.336 6.50102C149.596 6.24033 149.898 6.03666 150.24 5.89002C150.582 5.74338 150.949 5.67006 151.34 5.67006V17.5723H148.505V8.50509Z" fill="#0638A8"/>
<path d="M159.572 5.67006C160.925 5.62118 162.171 5.70265 163.312 5.91446C164.452 6.10998 165.348 6.46029 166 6.96538V7.64969C165.283 7.17719 164.525 6.82688 163.727 6.59878C162.929 6.37067 162.163 6.25662 161.43 6.25662C160.713 6.25662 160.028 6.37067 159.377 6.59878C158.725 6.82688 158.155 7.17719 157.666 7.64969C157.177 8.10591 156.786 8.68432 156.493 9.38493C156.216 10.0855 156.085 10.9084 156.102 11.8534C156.118 12.7495 156.265 13.5234 156.542 14.1752C156.835 14.8106 157.218 15.332 157.69 15.7393C158.163 16.1466 158.701 16.4481 159.303 16.6436C159.923 16.8228 160.574 16.9124 161.259 16.9124C162.041 16.9124 162.847 16.8065 163.678 16.5947C164.509 16.3829 165.283 16.057 166 15.6171V16.1303C165.544 16.4236 165.096 16.6599 164.656 16.8391C164.232 17.0183 163.776 17.165 163.287 17.279C162.798 17.3768 162.253 17.442 161.65 17.4745C161.063 17.5071 160.371 17.5234 159.572 17.5234C158.529 17.5234 157.593 17.3849 156.762 17.1079C155.947 16.831 155.255 16.4399 154.684 15.9348C154.13 15.4297 153.698 14.8106 153.389 14.0774C153.096 13.3442 152.949 12.5295 152.949 11.6334V11.2424C152.949 11.1935 152.949 11.1446 152.949 11.0957C152.965 11.0306 152.973 10.9735 152.973 10.9246C153.12 9.3279 153.747 8.07332 154.855 7.1609C155.98 6.24847 157.552 5.75153 159.572 5.67006Z" fill="#0638A8"/>
</svg>
